<svg xmlns="http://www.w3.org/2000/svg" xmlns:xlink="http://www.w3.org/1999/xlink" viewBox="0 0 40 40">
    <style type="text/css">
        .st0{fill:none;}
        .st1{clip-path:url(#SVGID_2_);}
        .st2{fill:#547DBF;}
        .st3{fill:url(#SVGID_3_);}
        .st4{fill:url(#SVGID_4_);}
        .st5{fill:#2D3079;fill-opacity:0.1;}
        .st6{fill:#FFCE40;}
        .st7{fill:url(#SVGID_5_);}
        .st8{fill:#DB4436;}
        .st9{fill:url(#SVGID_6_);}
        .st10{fill:url(#SVGID_7_);}
        .st11{fill:#3E2723;fill-opacity:5.000000e-02;}
        .st12{clip-path:url(#SVGID_9_);}
        .st13{fill:#EEEEEE;}
        .st14{clip-path:url(#SVGID_11_);}
        .st15{fill:#FFFFFF;fill-opacity:0.4;}
        .st16{fill:#262626;fill-opacity:5.000000e-02;}
        .st17{fill:#BE3A26;fill-opacity:5.000000e-02;}
        .st18{fill:#262626;fill-opacity:0.1;}
        .st19{clip-path:url(#SVGID_2_);fill:url(#SVGID_12_);}
        .st20{fill:#FFFFFF;fill-opacity:0.2;}
        .st21{fill:#BE3A26;fill-opacity:0.1;}
        .st22{fill:#3E2723;fill-opacity:0.2;}
        .st23{fill:url(#SVGID_13_);}
        .st24{opacity:0.54;}
        .st25{clip-path:url(#SVGID_15_);fill:none;}
        .st26{clip-path:url(#SVGID_15_);}
    </style>
    <defs>
        <path id="SVGID_1_" d="M35.5 17.2l-4.6-8.1 -2.9-5C27.6 3.5 26.9 3 26 3H11c-0.8 0-1.6 0.4-2 1.2l-4.6 8.1 -2.9 5c-0.4 0.7-0.4 1.6 0 2.3L9 32.6c0.4 0.7 1.2 1.2 2 1.2h15c0.8 0 1.6-0.4 2-1.2l7.5-13.1C35.9 18.8 35.9 18 35.5 17.2zM18.4 23c-2.5 0-4.6-2.1-4.6-4.6s2.1-4.6 4.6-4.6 4.6 2.1 4.6 4.6S21 23 18.4 23z"/>
    </defs>
    <clipPath id="SVGID_2_">
        <use xlink:href="#SVGID_1_"/>
    </clipPath>
    <g class="st1">
        <path class="st2" d="M13.2 9.2h17.7l-2.9-5C27.6 3.5 26.9 3 26 3H11c-0.8 0-1.6 0.4-2 1.2l-4.6 8.1 8.8 15.3V9.2z"/>
        <linearGradient id="SVGID_3_" gradientUnits="userSpaceOnUse" x1="7.5665" y1="17.7773" x2="15.2215" y2="13.3472">
            <stop offset="0" style="stop-color:#2D3079;stop-opacity:0.2"/>
            <stop offset="0.66" style="stop-color:#2D3079;stop-opacity:0"/>
        </linearGradient>
        <path class="st3" d="M13.2 9.2h17.7l-2.9-5C27.6 3.5 26.9 3 26 3H11c-0.8 0-1.6 0.4-2 1.2l-4.6 8.1 8.8 15.3V9.2z"/>
        <linearGradient id="SVGID_4_" gradientUnits="userSpaceOnUse" x1="3.6782" y1="12.9316" x2="8.196" y2="17.4493">
            <stop offset="0" style="stop-color:#2D3079;stop-opacity:0.2"/>
            <stop offset="1" style="stop-color:#2D3079;stop-opacity:4.000000e-02"/>
        </linearGradient>
        <polygon class="st4" points="4.4 12.3 8.9 16.7 8.1 18.8 "/>
        <polygon class="st5" points="8.3 18.7 4.9 12.8 4.4 12.3 8.1 18.8 "/>
        <path class="st6" d="M13.2 27.6L4.4 12.3l-2.9 5c-0.4 0.7-0.4 1.6 0 2.3L9 32.6c0.4 0.7 1.2 1.2 2 1.2h9.3l8.9-15.4L13.2 27.6z"/>
        <linearGradient id="SVGID_5_" gradientUnits="userSpaceOnUse" x1="23.4972" y1="28.2559" x2="15.9109" y2="23.8142">
            <stop offset="0" style="stop-color:#BE3A26;stop-opacity:0.15"/>
            <stop offset="0.66" style="stop-color:#BE3A26;stop-opacity:0"/>
        </linearGradient>
        <path class="st7" d="M13.2 27.6L4.4 12.3l-2.9 5c-0.4 0.7-0.4 1.6 0 2.3L9 32.6c0.4 0.7 1.2 1.2 2 1.2h9.3l8.9-15.4L13.2 27.6z"/>
        <path class="st8" d="M30.9 9.2H13.2l15.9 9.2 -8.9 15.4H26c0.8 0 1.6-0.4 2-1.2l7.5-13.1c0.4-0.7 0.4-1.6 0-2.3L30.9 9.2z"/>
        <linearGradient id="SVGID_6_" gradientUnits="userSpaceOnUse" x1="24.5277" y1="9.4044" x2="24.5277" y2="18.2022">
            <stop offset="0" style="stop-color:#A52822;stop-opacity:0.2"/>
            <stop offset="0.66" style="stop-color:#A52822;stop-opacity:0"/>
        </linearGradient>
        <path class="st9" d="M30.9 9.2H13.2l15.9 9.2 -8.9 15.4H26c0.8 0 1.6-0.4 2-1.2l7.5-13.1c0.4-0.7 0.4-1.6 0-2.3L30.9 9.2z"/>
        <linearGradient id="SVGID_7_" gradientUnits="userSpaceOnUse" x1="18.7011" y1="18.0951" x2="30.0119" y2="29.4059">
            <stop offset="0" style="stop-color:#3E2723;stop-opacity:0.15"/>
            <stop offset="1" style="stop-color:#3E2723;stop-opacity:0"/>
        </linearGradient>
        <polygon class="st10" points="23.8 9.2 35.8 21.2 35.8 33.8 20.3 33.8 23.8 27.6 "/>
        <rect x="23.7" y="9.2" class="st11" width="7.5" height="0.2"/>
    </g>
    <g class="st1">
        <defs>
            <path id="SVGID_8_" d="M30.9 9.2H13.2l15.9 9.2 -8.9 15.4H26c0.8 0 1.6-0.4 2-1.2l7.5-13.1c0.4-0.7 0.4-1.6 0-2.3L30.9 9.2z"/>
        </defs>
        <clipPath id="SVGID_9_">
            <use xlink:href="#SVGID_8_"/>
        </clipPath>
        <g class="st12">
            <path class="st13" d="M23.8 9.2l5.3 9.2 -5.3 9.2H13.2l-5.3-9.2 5.3-9.2H23.8"/>
        </g>
        <g class="st12">
            <path class="st2" d="M13.2 9.2h17.7l-2.9-5C27.6 3.5 26.9 3 26 3H11c-0.8 0-1.6 0.4-2 1.2l-4.6 8.1 8.8 15.3V9.2z"/>
        </g>
    </g>
    <g class="st1">
        <defs>
            <path id="SVGID_10_" d="M13.2 27.6L4.4 12.3l-2.9 5c-0.4 0.7-0.4 1.6 0 2.3L9 32.6c0.4 0.7 1.2 1.2 2 1.2h9.3l8.9-15.4L13.2 27.6z"/>
        </defs>
        <clipPath id="SVGID_11_">
            <use xlink:href="#SVGID_10_"/>
        </clipPath>
        <g class="st14">
            <path class="st13" d="M23.8 9.2l5.3 9.2 -5.3 9.2H13.2l-5.3-9.2 5.3-9.2H23.8"/>
        </g>
    </g>
    <g class="st1">
        <path class="st13" d="M23.8 9.2l5.3 9.2 -5.3 9.2H13.2l-5.3-9.2 5.3-9.2H23.8"/>
        <polygon class="st15" points="23.8 9.4 29 18.4 29.2 18.4 23.8 9.2 13.2 9.2 7.9 18.4 8 18.4 13.2 9.4 "/>
        <polygon class="st16" points="29 18.4 23.8 27.4 13.2 27.4 8 18.4 7.9 18.4 13.2 27.6 23.8 27.6 29.2 18.4 "/>
        <polygon class="st17" points="29.2 18.4 23.8 27.6 13.2 27.6 7.9 18.4 7.9 18.6 13.2 27.8 23.8 27.8 29.2 18.6 "/>
        <path class="st18" d="M18.4 13.6c-2.5 0-4.6 2.1-4.6 4.6h9.2C23.1 15.7 21 13.6 18.4 13.6zM13.8 18.6c0 2.5 2.1 4.6 4.6 4.6s4.6-2.1 4.6-4.6H13.8z"/>
    </g>
    <linearGradient id="SVGID_12_" gradientUnits="userSpaceOnUse" x1="18.5329" y1="27.6183" x2="18.5329" y2="33.7384">
        <stop offset="0" style="stop-color:#3E2723;stop-opacity:0.15"/>
        <stop offset="3.546852e-02" style="stop-color:#462823;stop-opacity:0.1447"/>
        <stop offset="0.2522" style="stop-color:#712E24;stop-opacity:0.1122"/>
        <stop offset="0.4625" style="stop-color:#923325;stop-opacity:8.062769e-02"/>
        <stop offset="0.6619" style="stop-color:#AA3726;stop-opacity:5.071827e-02"/>
        <stop offset="0.8459" style="stop-color:#B93926;stop-opacity:2.311477e-02"/>
        <stop offset="1" style="stop-color:#BE3A26;stop-opacity:0"/>
    </linearGradient>
    <polygon class="st19" points="13.2 27.6 19.4 33.8 20.3 33.8 23.8 27.6 "/>
    <g class="st1">
        <path class="st20" d="M4.4 12.5L9 4.4c0.4-0.7 1.2-1.2 2-1.2h15c0.8 0 1.6 0.4 2 1.2l2.9 5 4.6 8.1c0.2 0.3 0.3 0.7 0.3 1.1 0-0.4-0.1-0.9-0.3-1.2l-4.6-8.1 -2.9-5C27.6 3.5 26.9 3 26 3H11c-0.8 0-1.6 0.4-2 1.2l-4.6 8.1 -2.9 5c-0.2 0.4-0.3 0.8-0.3 1.2 0-0.4 0.1-0.7 0.3-1.1L4.4 12.5zM11 33.6c-0.8 0-1.6-0.4-2-1.2l-4.6-8.1 -2.9-5c-0.2-0.3-0.3-0.7-0.3-1.1 0 0.4 0.1 0.9 0.3 1.2l2.9 5L9 32.6c0.4 0.7 1.2 1.2 2 1.2h9.3l0.1-0.2H11zM35.8 18.3c0 0.4-0.1 0.7-0.3 1.1l-4.6 8.1 -2.9 5c-0.4 0.7-1.2 1.2-2 1.2h-5.6l-0.1 0.2H26c0.8 0 1.6-0.4 2-1.2l2.9-5 4.6-8.1C35.7 19.2 35.8 18.7 35.8 18.3z"/>
    </g>
    <radialGradient id="SVGID_13_" cx="9.8634" cy="3.5289" r="34.5676" gradientTransform="matrix(6.457271e-03 0 0 6.457271e-03 2212.6196 -4568.3096)" gradientUnits="userSpaceOnUse">
        <stop offset="0" style="stop-color:#FFFFFF;stop-opacity:0.1"/>
        <stop offset="1" style="stop-color:#FFFFFF;stop-opacity:0"/>
    </radialGradient>
    <path class="st23" d="M35.5 17.2l-4.6-8.1 -2.9-5C27.6 3.5 26.9 3 26 3H11c-0.8 0-1.6 0.4-2 1.2l-4.6 8.1 -2.9 5c-0.4 0.7-0.4 1.6 0 2.3L9 32.6c0.4 0.7 1.2 1.2 2 1.2h15c0.8 0 1.6-0.4 2-1.2l7.5-13.1C35.9 18.8 35.9 18 35.5 17.2zM18.4 23c-2.5 0-4.6-2.1-4.6-4.6s2.1-4.6 4.6-4.6 4.6 2.1 4.6 4.6S21 23 18.4 23z"/>
    <rect x="1.2" y="-0.1" class="st0" width="34.6" height="36.9"/>
</svg>
