<svg xmlns="http://www.w3.org/2000/svg" viewBox="0 0 150 150"><defs><style>.cls-1{fill:#326ce5;}.cls-2{fill:#fff;stroke:#fff;stroke-width:0.25px;}</style></defs><title>logo</title><g id="layer1"><g id="g3052"><path id="path3055" class="cls-1" d="M82.77,10A9.81,9.81,0,0,0,79,11l-51,24.35a9.68,9.68,0,0,0-5.27,6.56L10.24,96.55A9.6,9.6,0,0,0,11.57,104q0.26,0.4.55,0.77l35.27,43.85A9.77,9.77,0,0,0,55,152.21h56.56a9.77,9.77,0,0,0,7.62-3.63l35.25-43.86a9.6,9.6,0,0,0,1.88-8.18L143.73,41.85a9.68,9.68,0,0,0-5.27-6.56L87.5,11A9.81,9.81,0,0,0,82.77,10Z" transform="translate(-10 -10)"/><path id="path3059" class="cls-2" d="M83.28,28.62a3.23,3.23,0,0,0-3,3.39s0,0.06,0,.08c0,0.25,0,.56,0,0.78a25.44,25.44,0,0,0,.42,2.9A28.49,28.49,0,0,1,81,41.31a3.33,3.33,0,0,1-1,1.58l-0.07,1.29a39.69,39.69,0,0,0-5.51.85A39.23,39.23,0,0,0,54.48,56.41l-1.1-.78a2.41,2.41,0,0,1-1.81-.18,28.48,28.48,0,0,1-4.11-3.71,25.41,25.41,0,0,0-2-2.13c-0.19-.16-0.47-0.38-0.68-0.54a3.63,3.63,0,0,0-2.12-.8,2.94,2.94,0,0,0-2.43,1.08,3.23,3.23,0,0,0,.75,4.5l0,0c0.2,0.16.45,0.37,0.63,0.51a25.42,25.42,0,0,0,2.53,1.48A28.47,28.47,0,0,1,48.71,59a3.39,3.39,0,0,1,.61,1.76l1,0.87a39.46,39.46,0,0,0-6.22,27.51l-1.28.37a4.23,4.23,0,0,1-1.31,1.32,28.48,28.48,0,0,1-5.47.9,25.52,25.52,0,0,0-2.93.23l-0.81.19H32.21a3.06,3.06,0,1,0,1.36,5.94h0l0.06,0L34.46,98a25.49,25.49,0,0,0,2.74-1,28.51,28.51,0,0,1,5.32-1.56,3.37,3.37,0,0,1,1.75.62l1.33-.23a39.69,39.69,0,0,0,17.59,22L62.63,119a3,3,0,0,1,.27,1.72,29.8,29.8,0,0,1-2.76,5,25.55,25.55,0,0,0-1.64,2.44c-0.12.23-.27,0.58-0.39,0.82a3.06,3.06,0,1,0,5.51,2.61h0c0.12-.24.28-0.55,0.38-0.78a25.45,25.45,0,0,0,.88-2.8c0.81-2,1.25-4.15,2.36-5.48a2.47,2.47,0,0,1,1.31-.64l0.69-1.25a39.47,39.47,0,0,0,28.15.07L98,121.88a2.41,2.41,0,0,1,1.56.94,28.46,28.46,0,0,1,2.09,5.13,25.51,25.51,0,0,0,.89,2.8c0.1,0.23.26,0.54,0.38,0.78a3.06,3.06,0,1,0,5.51-2.61c-0.12-.24-0.28-0.59-0.4-0.82a25.43,25.43,0,0,0-1.64-2.43,28.5,28.5,0,0,1-2.7-4.84A2.39,2.39,0,0,1,104,119a10.48,10.48,0,0,1-.51-1.23A39.69,39.69,0,0,0,121,95.69l1.3,0.23a2.41,2.41,0,0,1,1.71-.63,28.51,28.51,0,0,1,5.32,1.56,25.49,25.49,0,0,0,2.74,1.06c0.22,0.06.54,0.11,0.79,0.17l0.06,0h0a3.06,3.06,0,1,0,1.36-5.94c-0.26-.06-0.63-0.16-0.89-0.21a25.52,25.52,0,0,0-2.93-.23,28.47,28.47,0,0,1-5.47-.9,3.42,3.42,0,0,1-1.32-1.32l-1.23-.36a39.62,39.62,0,0,0-6.35-27.45l1.08-1a2.41,2.41,0,0,1,.57-1.73,28.47,28.47,0,0,1,4.54-3.19,25.5,25.5,0,0,0,2.53-1.48c0.2-.15.46-0.37,0.67-0.54a3.07,3.07,0,1,0-3.8-4.77c-0.21.16-.49,0.38-0.68,0.54a25.52,25.52,0,0,0-2,2.13A28.56,28.56,0,0,1,115,55.4a3.4,3.4,0,0,1-1.85.2l-1.16.83A40,40,0,0,0,86.64,44.2c0-.41-0.06-1.14-0.07-1.36a2.41,2.41,0,0,1-1-1.52,28.54,28.54,0,0,1,.35-5.53,25.44,25.44,0,0,0,.42-2.9c0-.25,0-0.6,0-0.87a3.23,3.23,0,0,0-3-3.39h0ZM79.46,52.28l-0.91,16-0.07,0a2.69,2.69,0,0,1-4.27,2.06h0l-13.12-9.3a31.42,31.42,0,0,1,15.13-8.24A32.14,32.14,0,0,1,79.46,52.28Zm7.64,0a31.68,31.68,0,0,1,18.27,8.81l-13,9.24,0,0A2.69,2.69,0,0,1,88,68.26h0ZM56.32,67.06l12,10.71v0.07a2.69,2.69,0,0,1-1.06,4.62v0.05L51.86,86.94A31.41,31.41,0,0,1,56.32,67.06Zm53.83,0a32,32,0,0,1,4.59,19.82L99.32,82.44V82.38a2.69,2.69,0,0,1-1.06-4.62v0l11.91-10.66h0ZM80.82,78.6h4.91l3,3.81-1.09,4.76-4.41,2.12-4.42-2.12L77.77,82.4Zm15.73,13a2.68,2.68,0,0,1,.62,0l0,0,15.88,2.68a31.45,31.45,0,0,1-12.71,16L94.2,95.42l0,0a2.7,2.7,0,0,1,2.33-3.75h0Zm-26.67.07a2.69,2.69,0,0,1,2.43,3.75l0,0.06-6.1,14.74A31.58,31.58,0,0,1,53.58,94.39l15.74-2.67,0,0a2.72,2.72,0,0,1,.53,0h0Zm13.3,6.46a2.71,2.71,0,0,1,2.46,1.41H85.7l7.76,14a32.17,32.17,0,0,1-3.1.87,31.54,31.54,0,0,1-17.21-.89l7.74-14h0A2.69,2.69,0,0,1,83.18,98.17Z" transform="translate(-10 -10)"/></g></g></svg>